<?xml version="1.0" standalone="no"?>
<!DOCTYPE svg PUBLIC "-//W3C//DTD SVG 20010904//EN"
 "http://www.w3.org/TR/2001/REC-SVG-20010904/DTD/svg10.dtd">
<svg version="1.0" xmlns="http://www.w3.org/2000/svg"
 width="96.000000pt" height="96.000000pt" viewBox="0 0 96.000000 96.000000"
 preserveAspectRatio="xMidYMid meet">

<g transform="translate(0.000000,96.000000) scale(0.100000,-0.100000)"
fill="#58595b" stroke="none">
<path d="M0 480 l0 -480 480 0 480 0 0 480 0 480 -480 0 -480 0 0 -480z m614
266 c105 -51 161 -144 161 -266 0 -91 -24 -149 -85 -210 -65 -65 -116 -83
-242 -88 l-108 -4 0 150 c0 183 4 206 46 247 41 41 89 51 143 29 77 -30 106
-103 72 -179 -16 -37 -29 -50 -66 -66 -44 -19 -65 -20 -109 -3 -13 5 -16 -2
-16 -44 0 -43 3 -50 23 -56 65 -17 166 13 214 65 34 37 63 110 63 159 0 49
-29 122 -63 159 -33 36 -115 71 -167 71 -52 0 -134 -35 -167 -71 -12 -13 -31
-44 -42 -69 -18 -40 -21 -66 -21 -217 l0 -173 -35 0 -35 0 0 168 c0 188 10
242 59 309 84 116 243 154 375 89z"/>
</g>
</svg>
