<?xml version="1.0" standalone="no"?>
<!DOCTYPE svg PUBLIC "-//W3C//DTD SVG 20010904//EN"
 "http://www.w3.org/TR/2001/REC-SVG-20010904/DTD/svg10.dtd">
<svg version="1.0" xmlns="http://www.w3.org/2000/svg"
 width="96.000000pt" height="96.000000pt" viewBox="0 0 96.000000 96.000000"
 preserveAspectRatio="xMidYMid meet">

<g transform="translate(0.000000,96.000000) scale(0.100000,-0.100000)"
fill="#58595b" stroke="none">
<path d="M0 480 l0 -480 480 0 480 0 0 480 0 480 -480 0 -480 0 0 -480z m669
216 c17 -16 22 -16 55 -2 40 17 44 12 19 -23 -16 -24 -16 -24 13 -17 l29 7
-32 -33 c-20 -20 -33 -44 -33 -59 0 -38 -29 -128 -54 -168 -32 -50 -100 -109
-155 -134 -64 -30 -216 -30 -281 0 l-45 20 43 7 c81 12 160 56 103 56 -21 0
-81 51 -81 69 0 6 7 11 16 11 12 0 9 6 -11 22 -23 18 -55 72 -55 93 0 3 12 2
27 -1 l27 -7 -22 28 c-16 20 -22 41 -22 76 0 49 12 70 27 46 19 -31 95 -80
153 -98 79 -24 80 -24 80 10 0 34 37 91 70 109 32 16 105 10 129 -12z"/>
</g>
</svg>
