<?xml version="1.0" standalone="no"?>
<!DOCTYPE svg PUBLIC "-//W3C//DTD SVG 20010904//EN"
 "http://www.w3.org/TR/2001/REC-SVG-20010904/DTD/svg10.dtd">
<svg version="1.0" xmlns="http://www.w3.org/2000/svg"
 width="200.000000pt" height="200.000000pt" viewBox="0 0 200.000000 200.000000"
 preserveAspectRatio="xMidYMid meet">

<g transform="translate(0.000000,200.000000) scale(0.100000,-0.100000)"
fill="#637575" stroke="none">
<path d="M0 1000 l0 -1000 1000 0 1000 0 0 1000 0 1000 -1000 0 -1000 0 0
-1000z m1193 715 c230 -59 424 -236 507 -463 129 -355 -33 -754 -374 -917
-109 -52 -185 -68 -316 -69 -124 0 -199 15 -301 61 l-57 25 -90 -31 c-96 -33
-237 -59 -265 -48 -9 3 -23 17 -32 30 -22 34 -6 64 52 102 49 32 103 98 103
125 0 9 -20 52 -45 96 -25 43 -57 115 -72 159 -23 69 -26 98 -27 210 -1 110 3
142 22 205 89 285 305 476 600 530 65 12 219 4 295 -15z"/>
<path d="M856 1604 c-129 -31 -263 -120 -343 -227 -86 -116 -124 -228 -124
-372 -1 -140 28 -237 102 -352 49 -74 57 -133 26 -192 -9 -19 -16 -36 -14 -37
1 -2 33 8 70 21 86 31 91 31 163 -5 79 -39 172 -60 271 -60 110 0 172 14 273
62 69 33 100 56 165 122 92 93 136 167 165 282 38 146 18 313 -52 447 -48 93
-174 215 -268 260 -41 20 -102 44 -135 52 -73 19 -220 18 -299 -1z m189 -219
c14 -13 25 -33 25 -45 0 -26 -43 -70 -68 -70 -11 0 -31 9 -46 21 -35 28 -35
70 0 98 35 27 59 26 89 -4z m5 -202 c20 -26 21 -35 18 -261 -3 -232 -3 -234
-27 -253 -31 -26 -57 -24 -86 6 l-25 24 0 226 c0 263 5 284 72 285 17 0 34
-10 48 -27z"/>
</g>
</svg>
