<?xml version="1.0" standalone="no"?>
<!DOCTYPE svg PUBLIC "-//W3C//DTD SVG 20010904//EN"
 "http://www.w3.org/TR/2001/REC-SVG-20010904/DTD/svg10.dtd">
<svg version="1.0" xmlns="http://www.w3.org/2000/svg"
 width="96.000000pt" height="96.000000pt" viewBox="0 0 96.000000 96.000000"
 preserveAspectRatio="xMidYMid meet">

<g transform="translate(0.000000,96.000000) scale(0.100000,-0.100000)"
fill="#58595b" stroke="none">
<path d="M0 480 l0 -480 480 0 480 0 0 480 0 480 -480 0 -480 0 0 -480z m720
285 c55 -28 60 -52 60 -285 0 -169 -3 -217 -15 -240 -28 -55 -52 -60 -285 -60
-310 0 -300 -10 -300 300 0 310 -11 299 298 300 171 0 219 -3 242 -15z"/>
<path d="M610 660 l0 -50 50 0 50 0 0 50 0 50 -50 0 -50 0 0 -50z"/>
<path d="M440 572 c-21 -10 -42 -32 -53 -54 -18 -37 -18 -39 0 -75 11 -24 32
-45 56 -56 36 -18 38 -18 75 0 23 11 44 32 55 55 16 33 17 40 3 71 -25 61 -83
86 -136 59z"/>
<path d="M240 407 c0 -117 2 -136 18 -150 16 -15 47 -17 224 -17 186 0 206 2
221 18 14 15 17 42 17 150 l0 132 -40 0 -40 0 0 -56 c0 -101 -61 -164 -160
-164 -99 0 -160 63 -160 164 l0 56 -40 0 -40 0 0 -133z"/>
</g>
</svg>
