<?xml version="1.0" standalone="no"?>
<!DOCTYPE svg PUBLIC "-//W3C//DTD SVG 20010904//EN"
 "http://www.w3.org/TR/2001/REC-SVG-20010904/DTD/svg10.dtd">
<svg version="1.0" xmlns="http://www.w3.org/2000/svg"
 width="709.000000pt" height="709.000000pt" viewBox="0 0 709.000000 709.000000"
 preserveAspectRatio="xMidYMid meet">

<g transform="translate(0.000000,709.000000) scale(0.100000,-0.100000)"
fill="#58595b" stroke="none">
<path d="M3193 7025 c-671 -69 -1266 -310 -1813 -731 -149 -114 -470 -435
-584 -584 -438 -568 -680 -1189 -737 -1889 -15 -178 -7 -540 16 -711 99 -754
421 -1431 943 -1981 181 -190 444 -405 674 -549 144 -90 437 -236 598 -297
747 -284 1573 -305 2330 -61 1064 344 1904 1184 2248 2248 242 750 223 1575
-55 2315 -58 155 -214 471 -298 605 -271 429 -603 773 -1011 1050 -458 311
-962 501 -1524 575 -171 23 -610 29 -787 10z m92 -1845 c959 -38 1770 -228
2449 -573 231 -117 287 -161 330 -258 24 -53 28 -71 24 -138 -8 -176 -140
-305 -313 -305 -77 0 -84 2 -320 127 -464 244 -1075 408 -1805 484 -212 22
-951 25 -1165 5 -311 -29 -611 -81 -856 -148 -69 -19 -149 -34 -177 -34 -167
0 -312 148 -312 319 0 112 62 220 157 273 199 112 959 236 1538 251 55 2 123
4 150 5 28 1 163 -3 300 -8z m66 -1210 c749 -58 1450 -262 2032 -592 164 -94
219 -167 219 -289 -2 -169 -186 -301 -342 -246 -19 7 -80 39 -135 71 -464 267
-1057 446 -1700 512 -208 22 -696 25 -890 6 -267 -26 -542 -77 -815 -152 -64
-17 -83 -19 -127 -9 -138 28 -240 169 -217 297 20 111 96 190 219 227 267 81
686 156 1000 178 119 8 633 6 756 -3z m-122 -1130 c598 -32 1096 -158 1580
-401 86 -43 190 -100 232 -127 63 -41 80 -58 102 -103 15 -29 27 -67 27 -83 0
-135 -126 -243 -252 -215 -22 6 -97 42 -166 81 -414 237 -910 379 -1457 419
-194 14 -589 6 -795 -16 -173 -18 -464 -65 -625 -100 -138 -30 -177 -31 -230
-6 -167 77 -164 314 5 385 50 21 356 81 560 110 231 33 361 46 544 55 227 12
264 12 475 1z"/>
</g>
</svg>
