<?xml version="1.0" standalone="no"?>
<!DOCTYPE svg PUBLIC "-//W3C//DTD SVG 20010904//EN"
 "http://www.w3.org/TR/2001/REC-SVG-20010904/DTD/svg10.dtd">
<svg version="1.0" xmlns="http://www.w3.org/2000/svg"
 width="96.000000pt" height="96.000000pt" viewBox="0 0 96.000000 96.000000"
 preserveAspectRatio="xMidYMid meet">

<g transform="translate(0.000000,96.000000) scale(0.100000,-0.100000)"
fill="#58595b" stroke="none">
<path d="M0 480 l0 -480 480 0 480 0 0 480 0 480 -480 0 -480 0 0 -480z m572
316 c155 -46 248 -201 220 -363 -24 -146 -33 -173 -52 -173 -13 0 -21 -11 -27
-38 -8 -35 -11 -37 -53 -40 -71 -5 -90 3 -90 41 0 44 31 199 43 215 13 17 45
15 94 -7 46 -22 53 -17 53 40 0 25 -4 29 -29 29 -27 0 -31 5 -45 54 -58 199
-344 198 -402 -1 -14 -48 -18 -53 -45 -53 -25 0 -29 -4 -29 -29 0 -57 7 -62
53 -40 49 22 81 24 94 7 12 -16 43 -171 43 -215 0 -38 -19 -46 -90 -41 -42 3
-45 5 -53 40 -6 27 -14 38 -27 38 -19 0 -28 27 -52 173 -41 234 172 430 394
363z"/>
</g>
</svg>
