<?xml version="1.0" standalone="no"?>
<!DOCTYPE svg PUBLIC "-//W3C//DTD SVG 20010904//EN"
 "http://www.w3.org/TR/2001/REC-SVG-20010904/DTD/svg10.dtd">
<svg version="1.0" xmlns="http://www.w3.org/2000/svg"
 width="200.000000pt" height="200.000000pt" viewBox="0 0 200.000000 200.000000"
 preserveAspectRatio="xMidYMid meet">

<g transform="translate(0.000000,200.000000) scale(0.100000,-0.100000)"
fill="#637575" stroke="none">
<path d="M0 1000 l0 -1000 1000 0 1000 0 0 1000 0 1000 -1000 0 -1000 0 0
-1000z m1287 589 c197 -94 233 -361 70 -506 l-45 -39 24 -27 c13 -15 26 -43
30 -62 3 -19 9 -35 13 -35 4 0 63 38 132 85 68 47 132 85 142 85 10 0 32 -13
48 -29 l29 -29 0 -295 0 -295 -26 -31 c-14 -17 -36 -31 -47 -31 -12 0 -79 38
-149 85 -70 47 -130 85 -133 85 -3 0 -5 -10 -5 -22 0 -38 -48 -107 -91 -128
-38 -20 -54 -21 -453 -18 l-413 3 -36 28 c-67 51 -72 69 -75 287 -4 233 4 285
54 335 l34 35 -34 45 c-130 169 -2 419 214 418 37 0 81 -7 101 -15 56 -24 120
-87 144 -142 l22 -50 7 43 c14 88 81 180 160 219 96 48 183 49 283 1z"/>
<path d="M1055 1513 c-164 -86 -167 -311 -5 -396 48 -25 63 -28 113 -24 83 7
143 46 179 116 60 115 20 243 -94 302 -47 24 -150 25 -193 2z"/>
<path d="M555 1445 c-5 -2 -22 -6 -37 -9 -34 -8 -84 -50 -105 -89 -41 -81 -2
-196 80 -236 163 -79 326 107 224 256 -32 46 -122 90 -162 78z"/>
<path d="M835 1220 c-4 -19 -18 -55 -31 -79 -13 -24 -24 -45 -24 -47 0 -2 34
-4 75 -4 l76 0 -31 39 c-17 21 -37 58 -44 82 l-13 44 -8 -35z"/>
<path d="M523 775 c-3 -9 -1 -21 4 -26 5 -5 103 -8 239 -7 221 3 229 4 229 23
0 19 -8 20 -233 23 -205 2 -233 0 -239 -13z"/>
<path d="M525 660 c-16 -26 15 -30 241 -30 227 0 234 1 234 20 0 19 -7 20
-234 20 -146 0 -237 -4 -241 -10z"/>
</g>
</svg>
